Coordinates
version=1
nRows=14
nColumns=24
inDegrees=yes

Units are S.I. units (second, meters, Newtons, ...)
If the header above contains a line with 'inDegrees', this indicates whether rotational values are in degrees (yes) or radians (no).

endheader
time	pelvis_tilt	pelvis_list	pelvis_rotation	pelvis_tx	pelvis_ty	pelvis_tz	hip_flexion_r	hip_adduction_r	hip_rotation_r	knee_angle_r	ankle_angle_r	subtalar_angle_r	mtp_angle_r	hip_flexion_l	hip_adduction_l	hip_rotation_l	knee_angle_l	ankle_angle_l	subtalar_angle_l	mtp_angle_l	lumbar_extension	lumbar_bending	lumbar_rotation
      2.07500000	      9.80651242	      2.24778822	   -177.35451695	      0.29496061	      0.55628872	     -1.21974788	     69.84252681	    -30.56395765	    -12.98992025	   -105.36708132	     39.91561237	      9.16394164	      0.00000000	     75.29077210	    -32.43856333	     -2.77045729	   -103.34151573	     38.42900845	     23.58260001	      0.00000000	     -9.44787528	      2.23972247	      1.77959149
      2.08000000	      9.88044855	      2.25395973	   -177.35956073	      0.29494194	      0.55958829	     -1.21975516	     69.48820109	    -30.45559833	    -13.22239759	   -104.72164716	     39.65012937	      9.18875669	      0.00000000	     74.89699061	    -32.38826445	     -3.06784660	   -102.70866183	     38.14372723	     23.53831723	      0.00000000	     -9.31568533	      2.22667747	      1.80855212
      2.08500000	      9.91105756	      2.25581400	   -177.35582776	      0.29487250	      0.56306206	     -1.21979744	     69.07080536	    -30.33685462	    -13.46700714	   -104.06450968	     39.42028615	      9.11475545	      0.00000000	     74.43311477	    -32.34175323	     -3.38183469	   -102.05079176	     37.89085445	     23.46282066	      0.00000000	     -9.23958881	      2.16099754	      1.91298658
      2.09000000	      9.99709211	      2.24752613	   -177.35875101	      0.29486357	      0.56645463	     -1.21980929	     68.72741191	    -30.24052900	    -13.70099025	   -103.40259642	     39.12950736	      9.12158512	      0.00000000	     74.02753289	    -32.27653531	     -3.69832678	   -101.39553845	     37.59336582	     23.41451999	      0.00000000	     -9.09786416	      2.20176666	      1.78831761
      2.09500000	     10.02583420	      2.21922714	   -177.33293473	      0.29481285	      0.57000988	     -1.21982982	     68.29439956	    -30.14971708	    -13.92702816	   -102.71145489	     38.85803886	      9.03557282	      0.00000000	     73.49941378	    -32.17602412	     -4.05320979	   -100.69927594	     37.39277908	     23.35410009	      0.00000000	     -9.02189383	      2.17349929	      1.72265003
      2.10000000	     10.01396131	      2.09694809	   -177.26365428	      0.29457008	      0.57371412	     -1.21935097	     67.83457080	    -30.21877876	    -14.07052662	   -102.00252287	     38.57752271	      9.05808078	      0.00000000	     72.87967377	    -31.95860521	     -4.51446870	   -100.01422066	     37.07974992	     23.26420875	      0.00000000	     -8.97508390	      2.10964318	      1.61243639
      2.10500000	     10.16239003	      2.14885459	   -177.33699301	      0.29469968	      0.57722123	     -1.21984960	     67.52738284	    -29.94970780	    -14.35373053	   -101.28524795	     38.26817873	      9.05707570	      0.00000000	     72.51862418	    -31.99730547	     -4.81442109	    -99.26141836	     36.80521765	     23.18998943	      0.00000000	     -8.78381130	      2.09645343	      1.67377318
      2.11000000	     10.37523848	      2.24435188	   -177.25038689	      0.29504620	      0.58141339	     -1.22003285	     67.14535940	    -29.75550103	    -14.77481856	   -100.40754846	     37.88830933	      8.75668937	      0.00000000	     72.25499087	    -31.81434956	     -5.00037813	    -98.36700455	     36.37099495	     22.95536468	      0.00000000	     -8.42502910	      1.49794609	      3.23878659
      2.11500000	     10.30057786	      2.15662887	   -177.35505699	      0.29442323	      0.58468063	     -1.21975122	     66.69832847	    -29.69034373	    -14.87720549	    -99.81451069	     37.60742962	      8.77769388	      0.00000000	     71.59548237	    -31.83367230	     -5.41616560	    -97.83623772	     36.15577266	     22.98487535	      0.00000000	     -8.53706751	      2.06857445	      1.75797803
      2.12000000	     10.47120577	      2.22691077	   -177.27497280	      0.29489216	      0.58910157	     -1.22014241	     66.26440560	    -29.47576246	    -15.27282107	    -98.88581391	     37.26413236	      8.68067216	      0.00000000	     71.26578402	    -31.65102834	     -5.64185514	    -96.85473982	     35.67360443	     22.78434597	      0.00000000	     -8.24962333	      1.46216166	      3.23363434
      2.12500000	     10.51359140	      2.18120101	   -177.25606397	      0.29476749	      0.59298096	     -1.22016852	     65.80801976	    -29.37363879	    -15.48273942	    -98.10010312	     36.93879367	      8.65853925	      0.00000000	     70.71586566	    -31.51807834	     -6.00623186	    -96.07212989	     35.32627292	     22.72935780	      0.00000000	     -8.16262172	      1.40178840	      3.18059662
      2.13000000	     10.51855623	      2.09558357	   -177.21575550	      0.29483454	      0.59676544	     -1.22050285	     65.37269905	    -29.26574210	    -15.62422540	    -97.36632455	     36.65541332	      8.65378283	      0.00000000	     70.14496298	    -31.36733371	     -6.37590802	    -95.27801471	     34.98458098	     22.64862133	      0.00000000	     -8.27616453	      1.85669379	      1.66904924
      2.13500000	     10.52992939	      2.09477953	   -177.35176267	      0.29410820	      0.60049396	     -1.22013843	     64.88972703	    -29.11542015	    -15.84442878	    -96.62299193	     36.34867008	      8.71218761	      0.00000000	     69.52066319	    -31.40028092	     -6.77774454	    -94.60141178	     34.79351916	     22.55137148	      0.00000000	     -8.11347169	      1.97329974	      1.64844955
      2.14000000	     10.63510806	      2.16896554	   -177.38054212	      0.29375132	      0.60463117	     -1.21984635	     64.39338512	    -28.95105713	    -16.19925569	    -95.75024644	     35.97331326	      8.78831482	      0.00000000	     69.06236507	    -31.31254888	     -7.02954239	    -93.85489530	     34.38312642	     22.41172271	      0.00000000	     -7.78825959	      1.42348934	      3.28470844
